<?xml version="1.0" encoding="utf-8"?>
<!-- Generator: Adobe Illustrator 19.2.0, SVG Export Plug-In . SVG Version: 6.00 Build 0)  -->
<!DOCTYPE svg PUBLIC "-//W3C//DTD SVG 1.1//EN" "http://www.w3.org/Graphics/SVG/1.1/DTD/svg11.dtd" [
	<!ENTITY st0 "fill:#FFFFFF;">
]>
<svg version="1.1" id="Layer_1" xmlns="http://www.w3.org/2000/svg" xmlns:xlink="http://www.w3.org/1999/xlink" x="0px" y="0px"
	 viewBox="0 0 269.5 144.6" style="enable-background:new 0 0 269.5 144.6;" xml:space="preserve">
<g>
	<g>
		<g>
			<path style="&st0;" d="M144.6,116.9c-0.5-1.3-0.7-2.3-0.7-3.2c0-7.1,5.3-19.6,15.9-37.4c1.1-1.8,2.1-3.5,3-5
				c0.9-1.6,1.8-2.9,2.6-4.1c0-0.4-0.5-0.8-1.4-1.2c-0.9-0.4-1.7-0.6-2.3-0.6c-0.6,0-1.3,0.5-2,1.4c-0.7,1-1.4,2-1.9,3.1
				c-0.6,1.1-1.1,2.2-1.7,3.3c-0.6,1.1-2,3.8-4.3,8.1c-2.3,4.3-4.4,8.5-6.3,12.7l-10.7,1.1l9.4-9.9c4.3-4.7,6.4-8.4,6.4-11.1
				c0-0.7-0.1-1-0.4-1l-2.8,4.1c-1.6,2.3-4.3,5.3-8.1,9.2c-3.8,3.8-7.1,6.8-9.8,9h-3l-3.2,0.1c-4.4,0-6.9-0.3-7.5-0.9l-0.3-0.2
				c-0.1,0-0.1,0-0.1,0.1l-0.2,0.2c0,1.2,0.5,2.2,1.6,3c1.1,0.8,2.3,1.2,3.7,1.2l4.9-0.2v0.1c-8.9,7-15.6,10.4-20,10.4l-2.6-0.5
				c-0.1,0-0.2,0-0.5,0.1c1.3,1.6,3.1,2.3,5.4,2.3c5.5,0,13.2-4.3,23.1-12.8c0.9-0.2,3.2-0.7,7-1.3c3.8-0.6,6.1-0.9,6.9-0.9
				c-2.5,7.6-3.7,12.5-3.7,14.8c0,2.3,0.4,4.2,1.1,5.7c0.8,1.5,1.7,2.2,2.9,2.2C145.3,119,145.2,118.3,144.6,116.9z M154.4,109.8
				c0,0.3,0.3,0.6,0.8,0.9c0.5,0.2,1,0.4,1.4,0.4s0.8-0.3,1.1-0.8l0.6-1.9c2-4.5,5.6-9.8,10.8-16.1c0.4-0.5,0.6-0.8,0.6-0.9
				c0-0.1,0-0.2-0.1-0.3c-0.7,0-2,1.2-4,3.6c-2,2.4-4,5.3-6.1,8.6c2.3-6.8,3.5-10.7,3.5-11.7c0-2.6-1.6-4-4.8-4
				c-0.7,0-1.1,0.2-1.1,0.6c0,0.2,0.2,0.3,0.5,0.3c0.3,0,0.7,0,1,0.2c0.3,0.1,0.5,0.6,0.5,1.2c0,2.5-0.8,6.2-2.4,11.2
				C155.2,106.1,154.4,109,154.4,109.8z M174.9,90.7c0.2-0.4,0.4-0.6,0.4-0.4c0-0.7-0.8-1-2.5-1h-0.4c-1.2,0-2.4,1.9-3.6,5.8
				c-1.3,3.9-1.9,7-1.9,9.3c0,2.4,0.4,4.2,1.2,5.4c0.8,1.3,1.9,1.9,3.3,1.9s2.2-0.6,2.2-1.9c0-0.4-0.1-0.6-0.2-0.6
				c0.1,0-0.1,0.2-0.7,0.7c-0.6,0.5-1,0.7-1.3,0.7c-1.1,0-1.6-1.5-1.6-4.4c0-1.1,0.5-3.3,1.6-6.8C172.4,96.2,173.6,93.2,174.9,90.7z
				 M210.2,100.1c0-0.2-0.1-0.3-0.4-0.3c0,0-1,1-2.8,2.9c-1.8,1.9-3.4,3.5-4.7,4.8c-2.1,1.8-4,2.7-5.7,2.7c-1.5,0-2.2-1-2.2-3
				c0-2,0.9-4.4,2.6-7.3c1.7-2.9,3.8-5.3,6.1-7.2c1.3-1.1,2.3-1.7,2.9-1.7c0.4,0,0.6,0.3,0.6,0.9c0,3.9-2.8,6.8-8.3,8.5l-0.2,0.4
				c0,0.2,0.2,0.3,0.6,0.3c2.1,0,4.3-0.9,6.6-2.7c2.3-1.8,3.4-3.6,3.4-5.4c0-1.1-0.4-2-1.3-2.7c-0.9-0.7-1.9-1.1-3.1-1.1
				c-2.7,0-5.6,2.1-8.5,6.3c-0.1,0.1-0.1,0.2-0.2,0.3c0.1-0.2,0.1-0.4,0.1-0.6c0-1.9-1.7-3.2-5.2-3.8c-2-3.2-3.8-4.8-5.4-4.8
				c-1.7,0-2.8,0.5-3.4,1.4c-0.6,1-0.9,2.8-0.9,5.5c-3.7,3.6-5.5,7.1-5.5,10.4c0,1.7,0.6,3.3,1.7,4.8c1.2,1.5,2.5,2.2,4,2.2
				c1.5,0,3.2-0.9,5.1-2.6c0.4,0.7,0.6,1.8,0.6,3.5c0,0.5-0.1,1-0.3,1.6c-1.7-0.4-3.8-0.6-6.3-0.6c-5.2,0-10.6,1-16,2.9
				c-5.5,1.9-10,4.5-13.7,7.8c-3.7,3.3-5.5,6.6-5.5,9.9c0,3.3,1.1,5.9,3.4,7.7c2.2,1.9,5,2.8,8.4,2.8c4.9,0,9.8-1.3,14.5-3.9
				c4.7-2.6,8.6-6.1,11.7-10.5s4.9-9.1,5.5-14c1.5,0.5,3,1.2,4.3,2.2c1.3,1,1.9,2,1.9,3c0,0.5-0.2,1-0.6,1.5
				c0.1,0.3,0.2,0.4,0.4,0.4c0.6,0,0.9-0.6,0.9-1.8c0-1.2-0.7-2.4-2-3.7c-1.3-1.3-3-2.4-4.9-3.2c0-0.4,0.1-0.9,0.1-1.4
				c0-2.3-0.4-4.1-1.1-5.4c2.8-3.5,4.2-7.6,4.2-12.2c0-0.6,0-1.1-0.1-1.5c2.3,0,3.5,0.7,3.5,2.2c0,0.4-0.2,0.8-0.7,1.2
				c0,0.2,0.1,0.3,0.4,0.3c0.1,0,0.2,0,0.2,0c-2.2,3.5-3.3,6.5-3.3,9c0,3.8,2,5.7,6.1,5.7c3.3,0,7.5-3.7,12.5-11
				C210.2,100.5,210.2,100.3,210.2,100.1z M174.7,132.9c-5.9,5.3-12.2,7.9-18.8,7.9c-3.1,0-5.5-0.7-7.2-2.1
				c-1.7-1.4-2.6-3.2-2.6-5.4s1-4.4,2.9-6.6c1.9-2.2,4.4-4.1,7.6-5.9c3.1-1.8,6.9-3.3,11.3-4.5c4.4-1.2,8.9-1.8,13.5-1.8
				c2,0,3.6,0.1,4.8,0.4C184.4,121.7,180.6,127.7,174.7,132.9z M182.1,92.4c0-2.6,0.7-3.9,2-3.9c1.3,0,2.4,0.8,3,2.4h-0.6
				C185.1,90.9,183.6,91.4,182.1,92.4L182.1,92.4z M180.9,110.1c-1.9,0-2.9-1.3-2.9-3.7c0-1.3,0.4-2.9,1.2-4.6s1.7-3.1,2.7-4.1
				l3.7,8.9C184.2,108.9,182.6,110.1,180.9,110.1z M186.4,105.5c-2.5-5.3-3.8-8.2-3.8-8.6c0-0.3,0.8-0.9,2.3-1.7
				c1.5-0.8,2.7-1.3,3.5-1.6c0.4,1.1,0.6,2.3,0.6,3.6C189,100.2,188.1,103,186.4,105.5z M215.6,110.1l-1.2,0.4c-1.2,0-1.7-1.3-1.7-4
				s0.4-5.7,1.2-9.3c10.2-11.9,15.3-19.6,15.3-23.1c0-0.8-0.5-1.6-1.6-2.3c-1.1-0.7-2.1-1-3.2-1c-1.9,0-4,2.4-6.3,7.3
				c-2.4,4.9-4.3,10.1-5.8,15.6c-1.5,5.5-2.3,9.6-2.3,12.1c0,3.8,1.2,5.8,3.5,5.8c1.7,0,2.5-0.4,2.5-1.2
				C216,110.2,215.9,110.1,215.6,110.1z M220.8,80.7c2.7-5.1,4.8-7.7,6.3-7.7c0.3,0,0.5,0.3,0.5,0.9c0,2.9-4.3,10-13,21.4
				C215.9,90.7,218,85.8,220.8,80.7z M230.5,85.8c1.5,0,2.6-1.5,3.3-4.5l0.4-2.1c0-0.2,0-0.4-0.1-0.4c-2.3,2.8-4.3,4.8-6.1,6.1
				C228.5,85.5,229.4,85.8,230.5,85.8z M230.3,90.7c-0.1-0.7-1.1-1-2.7-1c-0.6,0-1,0.2-1.4,0.5c-0.1,0.1-0.3,0.5-0.6,1
				c-0.3,0.5-0.4,0.9-0.4,1.1c-2.9,6.6-4.3,11.8-4.3,15.8c0,2.6,0.9,4,2.7,4c0.6,0,1.6-0.4,3-1.2c1.4-0.8,2.1-1.5,2.1-2.1
				c0-0.2-0.1-0.3-0.3-0.3c-0.2,0.1-0.4,0.3-0.5,0.4s-0.6,0.5-1.2,1c-0.7,0.5-1.2,0.8-1.7,0.8c-0.6,0-0.9-0.7-0.9-2.2
				c0-1.5,0.7-4.2,2-8.1C227.4,96.5,228.8,93.2,230.3,90.7z M249.3,100.1c0-0.2-0.1-0.3-0.4-0.3c0,0-1,1-2.8,2.9
				c-1.8,1.9-3.4,3.5-4.7,4.8c-2.1,1.8-4,2.7-5.7,2.7c-1.5,0-2.2-1-2.2-3c0-2,0.9-4.4,2.6-7.3c1.7-2.9,3.8-5.3,6.1-7.2
				c1.3-1.1,2.3-1.7,2.9-1.7c0.4,0,0.6,0.4,0.6,1.3c0,0.8-0.3,1.9-0.9,3.2c0,0.2,0.3,0.4,0.7,0.4c1.5,0,2.3-1.1,2.3-3.4
				c0-0.8-0.5-1.6-1.5-2.3c-1-0.7-2-1-3-1c-2.7,0-5.5,2.1-8.4,6.3c-2.9,4.2-4.4,7.7-4.4,10.6c0,3.8,2,5.7,6.1,5.7
				c3.3,0,7.5-3.7,12.5-11C249.2,100.5,249.3,100.3,249.3,100.1z M267.4,90.1c-1.3-0.7-2.8-1-4.5-1h-0.7c-1.7,0-3.8,1.1-6.2,3.4
				c-2.4,2.3-4.5,4.8-6.2,7.7c-1.7,2.9-2.6,5.1-2.6,6.5c0,1.4,0.4,2.6,1.2,3.5c0.8,0.9,1.7,1.3,2.6,1.3c2.3,0,5.4-3.1,9.3-9.2
				c1.3-1.8,1.9-2.8,1.9-3c-0.7,2.3-1,4.4-1,6.2c0,1.8,0.4,3.2,1.1,4.3c0.7,1.1,1.7,1.6,2.9,1.6c1.2,0,1.8-0.2,1.8-0.6l-0.1-0.1
				l-0.7,0.1c-1.3,0-1.9-1.3-1.9-3.8s0.8-5.5,2.4-8.9l1-1.9c0-0.3-0.4-0.7-1.2-1.2c-0.8-0.5-1.3-0.7-1.5-0.7s-0.4,0-0.5,0.1
				c-6.9,9.8-11.5,14.6-13.6,14.6c-0.5,0-0.7-0.5-0.7-1.4c0-2.4,1.8-5.8,5.3-10.3c3.5-4.5,6.6-6.7,9.3-6.7c1.5,0,2.7,0.9,3.5,2.7
				c0,0.1,0.1,0.2,0.2,0.2c0.4,0,0.6-0.3,0.6-0.8C269.3,91.8,268.6,90.8,267.4,90.1z M26.2,82.7l-0.4,2.1c-0.2,0.8-0.7,1.2-1.4,1.2
				c-1.9,0-4.9-3.2-8.8-9.5c0.7,0.1,1.5,0.1,2.4,0.1c2.6,0,5.2-0.4,7.7-1.3c2.6-0.8,4.7-2,6.4-3.5c1.7-1.5,2.6-3.1,2.6-4.8
				c0-1.7-1.3-3.1-3.8-4.2c-2.5-1-5.9-1.6-10-1.6h-0.6c-2.7,0-5.6,0.3-8.6,0.8c-3,0.5-5.6,1.3-7.9,2.3c-2.2,1-3.3,2-3.3,3.1
				c0,0.5,0.3,0.8,0.8,0.8c0.2,0,0.6-0.1,1-0.4c5.2-3.6,12.1-5.5,20.6-5.5c3.2,0,5.8,0.4,7.8,1.1c2,0.7,3,1.8,3,3s-0.9,2.6-2.6,4.1
				c-1.8,1.4-3.9,2.6-6.5,3.6c-2.6,1-5,1.4-7.2,1.4c-1,0-1.6-0.1-2-0.3c-0.3-0.2-0.8-0.8-1.3-1.7c2.3-2.9,4.4-5.3,6.3-7.3l2.3-2.3
				c0.1,0,0.1-0.1,0.1-0.2c0-0.1-0.1-0.3-0.4-0.5c-0.3-0.2-0.5-0.2-0.7-0.2c-0.1,0-0.3,0-0.4,0c-2.9,1.4-5.7,4.2-8.5,8.3
				c-0.2-0.4-0.4-0.6-0.8-0.6c-0.9,0-1.3,0.3-1.3,0.9c0,0.3,0.3,0.9,0.8,1.8c-2.3,4-3.5,7.5-3.5,10.5c0,1.9,0.3,2.9,1,2.9
				c0.2,0,0.2,0,0.2-0.1c-0.4-0.2-0.6-0.6-0.6-1.2c0-2.2,1.3-5.5,4-10c2.1,3.3,4.1,6,6.2,8.1c2,2.1,3.6,3.1,4.6,3.1
				c1,0,1.8-0.3,2.5-1c0.6-0.7,0.9-1.3,0.9-2S26.6,82.9,26.2,82.7z M41.9,78.2c0-0.1-0.1-0.2-0.3-0.2c0,0-0.7,0.7-1.9,2
				c-1.2,1.3-2.3,2.4-3.2,3.3C35,84.4,33.7,85,32.5,85c-1,0-1.5-0.7-1.5-2c0-1.4,0.6-3,1.8-5c1.2-2,2.6-3.6,4.2-5
				c0.9-0.8,1.6-1.1,2-1.1c0.3,0,0.4,0.2,0.4,0.6c0,2.7-1.9,4.7-5.7,5.8l-0.1,0.2c0,0.1,0.1,0.2,0.4,0.2c1.5,0,3-0.6,4.5-1.8
				c1.6-1.2,2.3-2.5,2.3-3.7c0-0.7-0.3-1.3-0.9-1.9c-0.6-0.5-1.3-0.8-2.1-0.8c-1.9,0-3.8,1.4-5.8,4.3c-2,2.9-3,5.3-3,7.3
				c0,2.6,1.4,3.9,4.2,3.9c2.3,0,5.2-2.5,8.6-7.6C41.9,78.5,41.9,78.3,41.9,78.2z M45.6,73.9c1.6-1.1,3.1-1.6,4.6-1.6
				c0.2,0,0.7,0.1,1.4,0.2c0.2,0,0.2-0.1,0.2-0.3c0-0.2-0.3-0.6-1-1.3c-0.7-0.7-1.2-1-1.4-1c-1.5,0-3,0.7-4.7,2.1
				c-1.7,1.4-2.6,2.7-2.6,4c0,1.9,0.9,3.6,2.6,5.1c0.9,0.8,1.3,1.3,1.3,1.5c0,1.1-1.9,2.1-5.7,2.9c0,0.3,0.3,0.6,1,0.9
				c0.7,0.3,1.5,0.4,2.4,0.4s1.9-0.3,2.8-1c0.9-0.7,1.4-1.3,1.4-2c0-0.6-0.8-1.8-2.3-3.6c-1.6-1.8-2.3-2.8-2.3-3
				C43.3,76.1,44.1,75,45.6,73.9z M56.4,84c-0.1,0.1-0.2,0.2-0.3,0.3s-0.4,0.3-0.8,0.7c-0.5,0.4-0.8,0.5-1.1,0.5
				c-0.4,0-0.6-0.5-0.6-1.5s0.5-2.9,1.4-5.6c0.9-2.7,1.9-4.9,2.9-6.7C57.6,71.3,57,71,55.8,71c-0.4,0-0.7,0.1-0.9,0.3
				c-0.1,0.1-0.2,0.3-0.4,0.7c-0.2,0.4-0.3,0.6-0.3,0.7c-2,4.5-3,8.1-3,10.9c0,1.8,0.6,2.7,1.9,2.7c0.4,0,1.1-0.3,2.1-0.8
				c0.9-0.5,1.4-1,1.4-1.4C56.6,84,56.5,84,56.4,84z M60.1,65.3l0.2-1.4c0-0.2,0-0.2-0.1-0.2c-1.6,1.9-3,3.3-4.2,4.2
				c0.4,0.4,1,0.6,1.8,0.6C58.9,68.3,59.6,67.3,60.1,65.3z M74.1,69.2c2-4.1,3-6.5,3-7c0-1.6-1.1-2.3-3.4-2.3
				c-1.5,0-2.2,0.3-2.2,0.8c0,0.2,0.1,0.3,0.3,0.3l1.7-0.3c0.7,0,1,0.3,1,0.8c0,0-0.7,1.8-2.1,5.2C71,70,70,72.5,69.3,73.9
				c-1.5,2.2-3,4.1-4.5,5.8c-1.5,1.7-2.6,2.9-3.5,3.6c-0.9,0.7-1.4,1.1-1.7,1.1c-0.3,0-0.4-0.2-0.4-0.7c0-1.4,1.2-3.7,3.5-7
				c2.3-3.3,4-5,5.2-5l1,0.5c0.3,0,0.4-0.2,0.4-0.5c0-0.3-0.3-0.6-0.9-0.9c-0.6-0.3-1.1-0.4-1.6-0.4c-1.8,0-3.7,1.5-6,4.4
				c-2.2,3-3.3,5.5-3.3,7.5c0,0.7,0.3,1.4,1,2.3c0.7,0.8,1.3,1.2,2,1.2c1.1,0,2.3-1,3.8-2.9c1.5-2,2.8-4.2,4.1-6.7
				c-1.1,3.6-1.6,6.1-1.6,7.6c0,2.4,0.7,3.6,2.2,3.6c0.3,0,0.6-0.1,1.1-0.3c0.5-0.2,0.7-0.5,0.7-0.7l-0.1,0l-1.5,0.5
				c-0.7,0-1-0.7-1-2c0-2.3,0.9-5.4,2.6-9.2C71,75.5,72.1,73.4,74.1,69.2z M85.4,78.2c0-0.1-0.1-0.2-0.3-0.2c0,0-0.7,0.7-1.9,2
				c-1.2,1.3-2.3,2.4-3.2,3.3c-1.5,1.2-2.8,1.8-3.9,1.8c-1,0-1.5-0.7-1.5-2c0-1.4,0.6-3,1.8-5c1.2-2,2.6-3.6,4.2-5
				c0.9-0.8,1.6-1.1,2-1.1c0.3,0,0.4,0.2,0.4,0.6c0,2.7-1.9,4.7-5.7,5.8l-0.1,0.2c0,0.1,0.1,0.2,0.4,0.2c1.5,0,3-0.6,4.5-1.8
				c1.6-1.2,2.3-2.5,2.3-3.7c0-0.7-0.3-1.3-0.9-1.9c-0.6-0.5-1.3-0.8-2.1-0.8c-1.9,0-3.8,1.4-5.8,4.3c-2,2.9-3,5.3-3,7.3
				c0,2.6,1.4,3.9,4.2,3.9c2.3,0,5.2-2.5,8.6-7.6C85.4,78.5,85.4,78.3,85.4,78.2z M95.8,72.2c0-0.1,0-0.1,0-0.2
				c-0.5,0-1.4,0.8-2.7,2.5c-1.4,1.7-2.8,3.6-4.2,5.9c1.6-4.7,2.4-7.4,2.4-8.1c0-1.8-1.1-2.7-3.3-2.7c-0.5,0-0.7,0.1-0.7,0.4
				c0,0.2,0.1,0.2,0.3,0.2c0.2,0,0.5,0,0.7,0.1c0.2,0.1,0.3,0.4,0.3,0.8c0,1.7-0.5,4.3-1.6,7.7s-1.6,5.4-1.6,6
				c0,0.2,0.2,0.4,0.5,0.6c0.4,0.2,0.7,0.2,1,0.2s0.5-0.2,0.7-0.5l0.4-1.3c1.4-3.1,3.9-6.8,7.4-11.1C95.7,72.5,95.8,72.3,95.8,72.2z
				 M97.9,70.8h-0.2c-0.8,0-1.6,1.3-2.5,4c-0.9,2.7-1.3,4.8-1.3,6.4c0,1.6,0.3,2.9,0.8,3.7c0.5,0.9,1.3,1.3,2.3,1.3
				c1,0,1.5-0.4,1.5-1.3c0-0.3,0-0.4-0.1-0.4c0.1,0-0.1,0.2-0.5,0.5c-0.4,0.3-0.7,0.5-0.9,0.5c-0.7,0-1.1-1-1.1-3
				c0-0.7,0.4-2.3,1.1-4.7c0.7-2.4,1.6-4.4,2.5-6.1c0.1-0.2,0.2-0.3,0.2-0.3C99.5,71,99,70.8,97.9,70.8z M115,85.8
				c0,0.1-0.2,0.8-0.6,1.9c0,0.1,0,0.2,0.1,0.2c0.7,0,1-0.6,1-1.9c0-2.3-1.3-3.5-3.8-3.5c-3.4,0-5.8,0.2-7.1,0.5l8.3-5.9
				c1.9-1.4,2.9-2.1,2.9-2.3c0-1.2-0.3-2.2-1-2.9c-0.7-0.7-1.5-1.1-2.4-1.1l-7.7,0.7c-0.1,0-0.2-0.1-0.4-0.2
				c-0.4,0.4-0.6,0.9-0.6,1.6c0,0.7,0.2,1,0.6,1s1.8-0.3,4.2-0.8c2.4-0.5,4-0.8,4.8-0.8c0.8,0,1.4,0.3,1.8,0.8
				c-0.1,0.2-2.4,1.9-6.9,4.9c-4.5,3.1-6.8,4.8-6.8,5.4c-0.2,0.3-0.6,0.5-1,0.6l0,0c-0.3,0.4-0.4,0.8-0.4,1.3c0,0.4,0,0.7,0.1,0.7
				c3-1.3,6.3-2,9.8-2C113.2,84.1,115,84.7,115,85.8z M118.9,86c1.6,0,3.7-2.1,6.4-6.3c0.9-1.3,1.3-1.9,1.3-2
				c-0.5,1.6-0.7,3-0.7,4.2c0,1.2,0.3,2.2,0.8,2.9c0.5,0.7,1.2,1.1,2,1.1c0.8,0,1.2-0.1,1.2-0.4l-0.1,0l-0.5,0.1
				c-0.9,0-1.3-0.9-1.3-2.6s0.5-3.8,1.6-6.1l0.7-1.3c0-0.2-0.3-0.5-0.8-0.8c-0.5-0.3-0.9-0.5-1-0.5c-0.1,0-0.3,0-0.3,0.1
				c-4.8,6.7-7.9,10.1-9.4,10.1c-0.3,0-0.5-0.3-0.5-0.9c0-1.6,1.2-4,3.6-7.1c2.4-3.1,4.6-4.6,6.4-4.6c1.1,0,1.9,0.6,2.4,1.8
				c0,0.1,0,0.1,0.1,0.1c0.3,0,0.8-0.8,0.9-0.9c2.7-4.4,5.6-8.6,8.2-13c4.4-7.5,8.4-15.2,11.9-23.1c-1.9,7.3-3.5,14.6-5.2,21.9
				c-0.5-0.7-1.1-1.3-1.8-1.7c-0.1-0.1-0.6,0-0.4,0.1c0.7,0.5,1.3,1.1,1.8,1.9c0,0,0,0-0.1,0c-1-0.2-2.2-0.1-3.3,0.3
				c-0.2,0.1,0.3,0.2,0.4,0.2c1-0.3,1.9-0.4,2.8-0.3c0,0-0.1,0.1-0.1,0.1c0,0.1,0,0.2,0,0.3c-0.8,0.4-1.6,1-2.1,1.9
				c-0.1,0.1,0.4,0.2,0.5,0.1c0.5-0.7,1.1-1.3,1.8-1.7c0,0,0,0,0.1,0.1c-0.4,0.9-0.5,1.9-0.3,3c0,0.1,0.5,0.2,0.5,0.1
				c-0.2-1.1-0.1-2,0.3-2.9c0.2,0,0.3,0,0.4-0.1c0.4,0.8,0.8,1.6,1,2.4c0,0.2,0.5,0.1,0.5,0c-0.2-0.9-0.7-1.8-1.2-2.7
				c0,0,0.1-0.1,0.1-0.1c0,0,0-0.1,0-0.1c0.9,0.4,1.6,1.1,2.2,2c0.1,0.1,0.5,0.2,0.5,0.1c-0.7-1.1-1.5-1.9-2.6-2.3
				c0.8-0.2,1.7-0.2,2.6,0c0.2,0,0.5-0.1,0.1-0.2c-1-0.2-1.9-0.2-2.8,0c0-0.1-0.1-0.1-0.1-0.1c0.5-0.7,1.2-1.2,2-1.6
				c0.1,0-0.3-0.3-0.4-0.2c-0.7,0.3-1.3,0.8-1.7,1.3c0.6-2.7,1.3-5.5,1.9-8.2c0,0,0,0,0,0c0.9,0,1.7,0.1,2.5,0.4
				c-1,0.3-2,0.9-2.8,1.9c-0.1,0.1,0.4,0.3,0.4,0.2c0.7-0.9,1.5-1.4,2.4-1.7c0,0,0,0,0,0.1c0,0.1,0,0.1,0.1,0.2
				c-0.6,0.8-1.2,1.7-1.6,2.5c-0.1,0.1,0.4,0.2,0.5,0c0.3-0.8,0.8-1.5,1.3-2.2c0.1,0.1,0.3,0.1,0.5,0.1c0.2,0.9,0.2,1.8-0.2,2.8
				c0,0.1,0.4,0.3,0.5,0.1c0.4-1.1,0.4-2.1,0.1-3.1c0,0,0.1,0,0.1-0.1c0.6,0.5,1.1,1.1,1.5,1.9c0.1,0.1,0.5,0.1,0.5,0
				c-0.4-0.9-1-1.6-1.8-2.1c0-0.1,0.1-0.2,0-0.3c0,0,0-0.1,0-0.1c0.6,0,1.1,0.1,1.7,0.2c0.4,2.9,0.8,5.7,1.1,8.6
				c-0.7-0.5-1.5-0.8-2.3-1c-0.1,0-0.5,0.1-0.2,0.2c0.8,0.2,1.6,0.6,2.3,1.1c0,0,0,0.1,0,0.1c-1,0.2-2.1,0.6-3,1.4
				c-0.1,0.1,0.3,0.3,0.4,0.2c0.8-0.6,1.6-1.1,2.5-1.3c0,0,0,0.1,0,0.1c0,0.1,0,0.2,0.1,0.3c-0.6,0.7-1.1,1.5-1.3,2.5
				c0,0.1,0.5,0.2,0.5,0c0.2-0.9,0.6-1.6,1.1-2.2c0,0,0,0,0,0c0,1,0.2,1.9,0.8,2.9c0.1,0.1,0.5,0.2,0.4,0c-0.5-0.9-0.8-1.9-0.7-2.8
				c0.2,0,0.3-0.1,0.4-0.2c0.7,0.6,1.3,1.2,1.7,1.9c0.1,0.1,0.5,0,0.5-0.1c-0.6-0.8-1.3-1.5-2.1-2.2c0-0.1,0-0.1,0-0.2
				c0,0,0-0.1,0-0.1c0.9,0.1,1.9,0.4,2.8,1.1c0.1,0.1,0.6,0.1,0.4-0.1c-1-0.8-2-1.2-3.1-1.3c0.7-0.5,1.6-0.8,2.5-1
				c0.3-0.1-0.1-0.2-0.2-0.2c-0.9,0.1-1.8,0.5-2.5,1c0,0-0.1,0-0.1-0.1c0.3-0.8,0.7-1.5,1.3-2.2c0.1-0.1-0.3-0.3-0.4-0.2
				c-0.5,0.6-0.9,1.2-1.2,1.9c-0.3-2.6-0.7-5.3-1-7.9c0.2,0.1,0.4,0.1,0.6,0.2c0.1,0.1,0.6,0,0.3-0.1c-0.3-0.1-0.6-0.3-0.9-0.4
				c-0.1-0.7-0.2-1.3-0.3-2c0,0,0,0,0,0c0.1-0.1,0.1-0.1,0-0.1c-0.6-4.3-1.1-8.6-1.5-12.9c0.3,0,0.5-0.1,0.8-0.1
				c0.8,2.1,1.3,4.3,2,6.3c1.1,3.5,2,7.2,3.9,10.3c-0.7-0.4-1.5-0.7-2.4-0.8c-0.3,0-0.1,0.2,0.1,0.2c0.9,0.1,1.6,0.4,2.3,0.9
				c-0.1,0.1-0.1,0.2-0.1,0.3c-1,0.1-1.9,0.4-2.8,0.9c-0.2,0.1,0.3,0.2,0.4,0.1c0.7-0.4,1.4-0.7,2.2-0.8c-0.8,0.7-1.3,1.7-1.6,2.8
				c0,0.1,0.4,0.2,0.5,0.1c0.2-1.1,0.7-2,1.4-2.7c0,0,0.1,0.1,0.1,0.1c-0.2,1-0.3,2-0.2,2.9c0,0.1,0.5,0.1,0.5,0
				c0-0.9,0-1.8,0.2-2.7c0.2,0,0.3,0,0.5-0.1c0,0,0,0,0,0c0.5,0.7,0.9,1.5,1.1,2.5c0,0.1,0.5,0.2,0.5,0.1c-0.2-1.1-0.6-2.1-1.3-2.8
				c0-0.1,0.1-0.1,0.1-0.2c0.8,0.1,1.5,0.5,2.2,1c0.1,0.1,0.6,0,0.4-0.1c-0.8-0.6-1.7-1-2.6-1.1c0-0.1,0-0.3-0.1-0.4
				c0,0,0,0-0.1-0.1c0.6-0.4,1.4-0.6,2.2-0.7c0.7,1.4,1.5,2.8,2.2,4.1c0,0,0,0,0,0.1c-0.9-0.2-1.8-0.3-2.7-0.2
				c-0.3,0-0.1,0.2,0.1,0.2c0.8-0.1,1.6,0,2.4,0.2c0,0,0,0.1,0,0.1c-0.9,0.5-1.7,1.3-2.3,2.3c-0.1,0.1,0.4,0.3,0.5,0.1
				c0.5-0.9,1.2-1.6,1.9-2.1c0,0,0,0,0,0.1c0,0.1,0.1,0.1,0.2,0.2c-0.3,0.8-0.5,1.7-0.3,2.7c0,0.2,0.5,0.1,0.5,0
				c-0.1-0.9,0-1.8,0.3-2.5c0,0,0,0,0,0c0.3,0.9,0.9,1.7,1.7,2.4c0.1,0.1,0.6,0.1,0.4,0c-0.9-0.7-1.4-1.5-1.7-2.4
				c0.2-0.1,0.3-0.3,0.4-0.4c0.8,0.3,1.6,0.7,2.3,1.2c0.1,0.1,0.6,0,0.4-0.1c-0.8-0.5-1.7-1-2.7-1.3c0-0.1,0-0.2-0.1-0.3
				c0,0,0,0,0-0.1c0.9-0.3,2-0.3,3.1,0.1c0.2,0.1,0.5,0,0.2-0.2c-1.1-0.4-2.2-0.4-3.2-0.2c0.5-0.7,1.2-1.3,2-1.7
				c0.2-0.1-0.3-0.2-0.4-0.1c-0.8,0.5-1.5,1.1-2,1.8c0,0,0,0-0.1,0c0-0.8,0.1-1.6,0.5-2.4c0-0.1-0.4-0.3-0.5-0.1
				c-0.3,0.8-0.4,1.5-0.5,2.3c-0.6-1.2-1.3-2.4-1.9-3.6c0.1,0,0.2,0,0.3,0c0.3,0,0-0.2-0.2-0.2c-0.1,0-0.1,0-0.2,0
				c-2.9-5.4-5.7-10.8-8.4-16.3c3.7,4.6,7.7,8.9,11.4,13.4l0,0c-0.6,0-1.1,0.1-1.7,0.2c-0.3,0.1,0.1,0.2,0.2,0.2
				c0.4-0.1,0.8-0.2,1.3-0.2c-0.5,0.4-0.8,1-1.1,1.7c0,0.1,0.4,0.3,0.5,0.1c0.2-0.6,0.5-1.1,0.9-1.5c-0.1,0.6-0.1,1.1,0.1,1.7
				c0,0.1,0.5,0.1,0.5,0c-0.2-0.5-0.2-1-0.2-1.4c0.3,0.4,0.8,0.8,1.3,1.1c0.2,0.1,0.5,0,0.2-0.1c-0.6-0.3-1-0.7-1.3-1.3
				c0.1-0.1,0.1-0.1,0.1-0.2c0.5,0.1,1,0.2,1.5,0.4c0.1,0,0.6-0.1,0.3-0.1c-0.6-0.2-1.2-0.4-1.9-0.5c0,0,0-0.1,0-0.1
				c0.5-0.3,1.2-0.5,1.9-0.4c0.3,0,0.1-0.2-0.1-0.2c-0.6-0.1-1.2,0-1.7,0.2c0.2-0.4,0.5-0.8,0.9-1.1c0.1-0.1-0.4-0.2-0.5-0.1
				c-0.4,0.3-0.7,0.8-0.9,1.2c-0.1-0.4-0.1-0.8,0-1.3c0-0.1-0.4-0.3-0.5-0.1c-0.1,0.4-0.1,0.9,0,1.3c-3.7-4.4-7.6-8.7-11.2-13.2
				c0.2-0.2,0.4-0.4,0.5-0.6c5.9,5.2,11.9,10.1,17.9,15.1c0,0,0,0.1,0,0.1c-0.9,0.2-1.8,0.4-2.6,0.9c-0.2,0.1,0.2,0.2,0.3,0.1
				c0.7-0.4,1.4-0.6,2.2-0.8c0,0,0,0,0,0c-0.7,0.8-1.1,1.9-1.3,3c0,0.1,0.5,0.2,0.5,0.1c0.1-1,0.5-1.9,1-2.7c0,0,0,0,0,0
				c0.1,0.1,0.1,0.1,0.2,0.1c0,0.9,0.2,1.7,0.7,2.6c0.1,0.1,0.5,0.1,0.5,0c-0.5-0.8-0.7-1.7-0.7-2.5c0,0,0.1,0,0.1,0
				c0.7,0.7,1.5,1.3,2.6,1.6c0.3,0.1,0.3-0.1,0.1-0.2c-1-0.3-1.8-0.8-2.4-1.6c0,0,0,0,0,0c0.2-0.2,0.2-0.4,0.2-0.6
				c0.9,0,1.8,0,2.6,0.2c0.1,0,0.5-0.1,0.2-0.2c-0.9-0.2-1.9-0.2-2.9-0.2c0-0.1-0.1-0.2-0.2-0.2c0,0,0,0,0,0c0.8-0.7,1.8-1.1,3-1.1
				c0.2,0-0.2-0.2-0.3-0.2c-1.1,0.1-2,0.4-2.7,0.9c0.2-0.7,0.6-1.5,1.1-2.1c0.1-0.1-0.4-0.2-0.5-0.1c-0.6,0.8-1,1.6-1.2,2.5
				c0,0-0.1,0-0.1,0c-0.3-0.7-0.5-1.5-0.5-2.4c0-0.2-0.5-0.3-0.5-0.1c0,0.9,0.2,1.8,0.5,2.5c-5.9-5-12-9.9-17.8-15c0,0,0-0.1,0-0.1
				c4.7,2.9,9.7,5.5,14.5,8.2c0,0,0,0,0.1,0c0,0,0,0,0,0c-0.6,0.2-1.1,0.5-1.6,0.8c-0.1,0.1,0.3,0.2,0.4,0.1c0.3-0.2,0.6-0.4,1-0.6
				c-0.2,0.5-0.3,1.1-0.3,1.8c0,0.2,0.5,0.2,0.5,0.1c0-0.6,0.1-1.2,0.3-1.7c0.1,0.5,0.4,1,0.7,1.4c0.1,0.1,0.5,0.1,0.5,0
				c-0.4-0.4-0.6-0.9-0.7-1.4c0.5,0.4,1.1,0.6,1.8,0.6c0.3,0,0-0.2-0.2-0.2c-0.6-0.1-1.1-0.3-1.5-0.6c0.1-0.1,0.1-0.2,0-0.3
				c0.6-0.1,1.1-0.2,1.7-0.2c0.3,0,0.3-0.2,0-0.2c-0.6,0-1.2,0.1-1.8,0.2c0,0,0,0,0,0c0.4-0.5,1-0.9,1.7-1.1c0.2,0-0.3-0.2-0.4-0.2
				c-0.5,0.1-1,0.4-1.4,0.7c0.1-0.4,0.2-0.8,0.4-1.2c0.1-0.1-0.4-0.2-0.5-0.1c-0.3,0.5-0.4,1-0.4,1.6c-0.2-0.4-0.4-0.8-0.4-1.2
				c0-0.1-0.5-0.2-0.5-0.1c0.1,0.5,0.3,1,0.6,1.4c-4.8-2.6-9.6-5.2-14.3-8.1c0.1-0.2,0.1-0.4,0.2-0.6c7.4,2.7,14.9,5.1,22.3,7.6
				c0,0,0,0.1,0,0.1c-0.8,0.5-1.6,1.1-2.2,1.8c-0.1,0.1,0.4,0.2,0.5,0c0.5-0.6,1.1-1.1,1.7-1.5c-0.3,1-0.3,2,0,3.2
				c0,0.1,0.5,0.2,0.5,0.1c-0.2-1-0.2-2,0-2.9c0,0,0,0,0,0c0.1,0,0.2,0,0.3,0c0.3,0.8,0.9,1.5,1.6,2.1c0.1,0.1,0.6,0,0.4-0.1
				c-0.7-0.6-1.3-1.3-1.6-2.1c0,0,0.1-0.1,0.1-0.1c0.9,0.5,1.9,0.7,3.1,0.6c0.3,0-0.2-0.2-0.3-0.2c-1,0.1-1.9-0.1-2.7-0.5
				c0,0,0,0,0-0.1c0.1-0.2,0.1-0.4,0-0.6c0.9-0.4,1.8-0.7,2.6-0.8c0.3-0.1,0.1-0.2-0.1-0.2c-0.9,0.2-1.8,0.4-2.7,0.8
				c-0.1-0.1-0.1-0.1-0.2-0.1c0.5-0.9,1.3-1.6,2.4-2.1c0.2-0.1-0.3-0.3-0.4-0.2c-1,0.4-1.7,1.1-2.2,1.8c0-0.7,0-1.5,0.3-2.3
				c0-0.1-0.4-0.2-0.5,0c-0.3,0.9-0.3,1.9-0.2,2.8c0,0-0.1,0-0.1,0.1c-0.5-0.5-1-1.2-1.3-2c-0.1-0.1-0.5-0.2-0.5-0.1
				c0.4,0.9,0.9,1.7,1.6,2.3c0,0,0,0,0,0c-7.4-2.5-14.9-4.9-22.3-7.6c0,0,0-0.1,0-0.1c0-0.2,0-0.3,0-0.5c5.7,1.1,11.5,2.2,17.2,3.1
				c-0.5,0.4-0.9,0.8-1.2,1.3c-0.1,0.1,0.4,0.2,0.5,0c0.2-0.3,0.4-0.6,0.7-0.9c0,0.5,0.1,1.1,0.3,1.7c0.1,0.1,0.5,0.2,0.5,0.1
				c-0.3-0.6-0.4-1.2-0.3-1.8c0.3,0.4,0.7,0.8,1.2,1.1c0.1,0.1,0.6,0,0.4-0.1c-0.5-0.3-0.9-0.7-1.2-1.2c0.6,0.2,1.3,0.2,2,0
				c0.2,0-0.2-0.3-0.4-0.2c-0.6,0.1-1.1,0.1-1.6,0c0-0.1,0-0.2,0-0.3c0.5-0.4,1.1-0.7,1.6-0.8c0.2-0.1-0.2-0.2-0.3-0.1
				c-0.5,0.2-1,0.4-1.4,0.7c0.2-0.6,0.6-1.1,1.2-1.5c0.1-0.1-0.3-0.2-0.4-0.2c-0.5,0.3-0.8,0.7-1,1.1c-0.1-0.4-0.1-0.7,0-1.1
				c0-0.1-0.5-0.2-0.5,0c-0.1,0.6,0,1.2,0.2,1.8c-0.3-0.3-0.6-0.6-0.9-1c-0.1-0.1-0.5-0.2-0.4,0c0.3,0.5,0.7,0.9,1.2,1.2
				c-5.5-0.8-10.9-1.9-16.4-2.9c7.7,0,15.4-0.4,23-0.6c0,0,0,0.1,0,0.1c-0.6,0.7-1.1,1.5-1.4,2.4c-0.1,0.1,0.4,0.2,0.5,0
				c0.3-0.7,0.6-1.4,1.1-2c0.1,1,0.5,1.9,1.1,2.9c0.1,0.1,0.5,0.2,0.4,0c-0.6-0.9-0.9-1.8-1-2.8c0,0,0,0,0,0c0.1,0,0.2,0,0.3-0.1
				c0.6,0.6,1.3,1.1,2.2,1.4c0.1,0,0.6-0.1,0.3-0.2c-0.9-0.3-1.6-0.8-2.2-1.4c0-0.1,0.1-0.1,0.1-0.2c1,0.1,2.1,0,3.1-0.5
				c0.2-0.1-0.3-0.3-0.4-0.2c-0.9,0.4-1.8,0.6-2.7,0.5c0,0,0,0,0,0c0-0.2-0.1-0.4-0.2-0.5c0.7-0.7,1.5-1.3,2.2-1.8
				c0.1-0.1-0.3-0.2-0.4-0.1c-0.7,0.4-1.5,1-2.1,1.7c-0.1,0-0.1,0-0.2,0c0.2-1,0.7-1.9,1.5-2.7c0.1-0.1-0.3-0.3-0.4-0.2
				c-0.8,0.8-1.2,1.6-1.5,2.5c-0.3-0.7-0.5-1.4-0.5-2.1c0-0.1-0.5-0.2-0.5,0c0.1,1,0.4,2,0.8,2.8c0,0-0.1,0.1-0.1,0.2
				c-0.7-0.3-1.3-0.8-1.9-1.4c-0.1-0.1-0.5-0.2-0.4,0c0.7,0.7,1.4,1.3,2.3,1.6c0,0,0,0,0,0.1c-7.9,0.3-15.9,0.6-23.8,0.6
				c0-0.2-0.1-0.4-0.1-0.6c4.3-0.9,8.5-2,12.8-3c-0.3,0.5-0.5,1.1-0.5,1.6c0,0.1,0.5,0.1,0.5,0c0.1-0.4,0.2-0.8,0.3-1.2
				c0.2,0.5,0.5,0.9,0.9,1.4c0.1,0.1,0.6,0.1,0.4,0c-0.5-0.5-0.8-1-1-1.6c0,0,0,0,0.1,0c0.5,0.3,1,0.5,1.6,0.6
				c0.2,0,0.5-0.1,0.1-0.2c-0.6-0.1-1.1-0.3-1.5-0.6c0,0,0,0,0,0c0.7,0,1.3-0.2,1.9-0.7c0.1-0.1-0.3-0.3-0.4-0.2
				c-0.5,0.4-1,0.6-1.5,0.6c0-0.1-0.1-0.1-0.1-0.2c0.3-0.5,0.7-1,1.2-1.4c0.1-0.1-0.3-0.2-0.4-0.1c-0.4,0.3-0.7,0.7-1.1,1.2
				c0-0.6,0.2-1.1,0.6-1.7c0.1-0.1-0.4-0.3-0.4-0.2c-0.3,0.5-0.5,1.1-0.6,1.6c-0.2-0.3-0.3-0.6-0.4-1c0-0.2-0.5-0.1-0.5,0
				c0.2,0.6,0.5,1.2,0.9,1.7c0,0,0,0,0,0c0,0,0,0,0,0c-0.4-0.1-0.9-0.3-1.3-0.6c-0.1-0.1-0.6-0.1-0.4,0c0.5,0.4,1,0.6,1.5,0.7
				c-4.3,1-8.5,2.1-12.8,3c-0.1-0.1-0.1-0.3-0.2-0.4c7.3-2.9,14.5-6.2,21.7-9.4c0,0,0,0,0,0c-0.3,0.9-0.4,1.8-0.4,2.7
				c0,0.1,0.5,0.1,0.5,0c0-0.8,0.1-1.6,0.3-2.4c0.5,0.8,1.2,1.6,2,2.2c0.1,0.1,0.6,0.1,0.4-0.1c-0.9-0.6-1.6-1.4-2-2.3
				c0,0,0,0,0.1,0c0.1,0,0.2-0.1,0.3-0.2c0.8,0.4,1.7,0.5,2.7,0.5c0.3,0,0.1-0.2-0.1-0.2c-0.9,0.1-1.7-0.1-2.4-0.5
				c0-0.1,0-0.1,0-0.2c1-0.2,1.9-0.7,2.7-1.6c0.1-0.1-0.3-0.3-0.4-0.2c-0.7,0.7-1.5,1.2-2.3,1.5c0,0,0,0,0,0
				c-0.1-0.2-0.2-0.3-0.3-0.4c0.4-0.9,0.9-1.7,1.4-2.4c0.1-0.1-0.4-0.2-0.5,0c-0.5,0.7-1,1.5-1.4,2.4c0,0-0.1,0-0.1,0
				c-0.2-1-0.1-2,0.4-3c0-0.1-0.4-0.3-0.5-0.1c-0.4,1.1-0.5,2.1-0.4,3.1c-0.5-0.5-1-1.1-1.3-1.8c-0.1-0.1-0.5-0.1-0.5,0
				c0.4,0.9,1.1,1.7,1.8,2.3c0,0.1-0.1,0.2-0.1,0.2c-0.8,0-1.6-0.2-2.4-0.6c-0.2-0.1-0.5,0-0.2,0.1c0.9,0.4,1.7,0.7,2.6,0.7
				c0,0,0,0,0,0c-7.1,3.1-14.1,6.3-21.3,9.2c3.4-2.2,6.8-4.5,10.1-6.8c0,0.1,0,0.3,0.1,0.4c0,0.2,0.5,0.1,0.5,0
				c-0.1-0.2-0.1-0.5-0.1-0.7c0.1-0.1,0.3-0.2,0.4-0.3c0.3,0.2,0.7,0.4,1,0.6c0.2,0.1,0.5,0,0.2-0.2c-0.4-0.2-0.7-0.4-1-0.6
				c0.3-0.2,0.6-0.4,0.9-0.6c0.2,0,0.4-0.1,0.6-0.1c0.2-0.1,0-0.1-0.2-0.2c1.1-0.7,2.1-1.4,3.2-2.1c-0.1,0.9-0.1,1.8,0,2.7
				c0,0.1,0.5,0.1,0.5,0c-0.1-0.8-0.2-1.6-0.1-2.4c0.6,0.8,1.4,1.4,2.4,1.9c0.1,0.1,0.6,0,0.3-0.1c-1-0.5-1.8-1.1-2.3-1.9
				c0,0,0,0,0.1,0c0.1-0.1,0.2-0.2,0.3-0.3c0.9,0.2,1.8,0.3,2.8,0.1c0.3-0.1-0.1-0.2-0.2-0.2c-0.9,0.2-1.7,0.1-2.4-0.1
				c0-0.1,0-0.1,0-0.2c0.9-0.4,1.8-1,2.4-2c0.1-0.1-0.4-0.3-0.5-0.1c-0.6,0.8-1.3,1.4-2.1,1.8c-0.1-0.2-0.2-0.3-0.4-0.3
				c0.2-0.9,0.6-1.8,1-2.6c0.1-0.1-0.4-0.2-0.5,0c-0.4,0.8-0.8,1.7-1,2.6c0,0-0.1,0-0.1,0c0,0,0,0,0,0c-0.3-0.9-0.4-1.9-0.1-3
				c0-0.1-0.4-0.3-0.5-0.1c-0.3,1.2-0.2,2.2,0.1,3.2c-0.6-0.4-1.2-1-1.6-1.6c-0.1-0.1-0.5-0.1-0.5,0c0.6,0.8,1.3,1.5,2.2,2
				c0,0.1,0,0.2,0,0.3c-0.8,0.1-1.6,0.1-2.5-0.2c-0.3-0.1-0.3,0.1-0.1,0.2c0.9,0.3,1.8,0.4,2.6,0.3c-1.2,0.8-2.4,1.6-3.7,2.4
				c-0.3,0-0.6,0-0.9-0.1c0,0,0,0,0,0c0.6-0.3,1.1-0.7,1.5-1.4c0.1-0.1-0.4-0.3-0.5-0.1c-0.3,0.5-0.7,0.9-1.2,1.2
				c0,0-0.1-0.1-0.1-0.1c0.1-0.6,0.3-1.2,0.5-1.7c0.1-0.1-0.4-0.2-0.5,0c-0.2,0.5-0.4,1-0.5,1.6c-0.2-0.5-0.2-1.1-0.1-1.7
				c0-0.1-0.4-0.2-0.5-0.1c-0.1,0.7-0.1,1.3,0.1,1.8c-0.3-0.2-0.6-0.5-0.8-0.8c-0.1-0.1-0.5-0.1-0.5,0c0.4,0.5,0.9,0.9,1.5,1.2
				c0,0,0,0,0,0.1c-0.5,0.1-1,0.1-1.6,0c-0.3-0.1-0.1,0.2,0.1,0.2c0.5,0.1,0.9,0.2,1.3,0.1c-3.6,2.6-7.2,5.2-10.8,7.7
				c-0.1-0.1-0.1-0.1-0.2-0.2c5.7-5.5,11.2-11.3,16.7-17.1c0.1,0.9,0.3,1.8,0.6,2.5c0.1,0.1,0.5,0.1,0.5-0.1
				c-0.3-0.7-0.5-1.6-0.6-2.4c0.8,0.6,1.8,1.1,2.9,1.3c0.3,0.1,0.3-0.1,0-0.2c-1-0.2-1.9-0.7-2.6-1.3c0,0,0.1,0,0.1-0.1
				c0.1-0.1,0.2-0.2,0.2-0.3c0.9,0,1.9-0.1,2.8-0.6c0.2-0.1-0.3-0.2-0.4-0.1c-0.8,0.4-1.6,0.5-2.3,0.5c0-0.1,0-0.1,0-0.2
				c0.8-0.6,1.5-1.4,1.9-2.5c0-0.1-0.4-0.3-0.5-0.1c-0.4,1-0.9,1.7-1.6,2.3c-0.1-0.1-0.3-0.2-0.4-0.2c0-0.9,0.2-1.9,0.4-2.7
				c0-0.1-0.4-0.1-0.5,0c-0.2,0.9-0.4,1.8-0.4,2.8c0,0-0.1,0-0.1,0.1c0,0,0,0,0,0c-0.5-0.8-0.8-1.8-0.8-2.9c0-0.2-0.5-0.2-0.5-0.1
				c0,1.2,0.3,2.3,1,3.2c-0.7-0.3-1.4-0.7-2-1.3c-0.1-0.1-0.6,0-0.4,0.1c0.8,0.7,1.6,1.2,2.6,1.4c0,0.1,0,0.2,0,0.3
				c-0.8,0.3-1.6,0.4-2.6,0.4c-0.3,0,0,0.2,0.2,0.2c0.8,0.1,1.6,0,2.4-0.3c-5.5,5.7-11,11.5-16.6,17c-0.1,0-0.1-0.1-0.2-0.1
				c3.4-4.9,6.8-9.9,10-14.9c0.2,0.5,0.3,0.9,0.6,1.3c0.1,0.1,0.5,0,0.5-0.1c-0.3-0.4-0.5-0.8-0.6-1.3c0.6,0.3,1.2,0.4,1.9,0.4
				c0.3,0-0.1-0.2-0.2-0.2c-0.6,0-1.2-0.2-1.6-0.4c0,0,0,0,0,0c0-0.1,0.1-0.1,0.1-0.2c0.6-0.1,1.2-0.3,1.7-0.7
				c0.1-0.1-0.3-0.2-0.4-0.1c-0.4,0.3-0.8,0.5-1.2,0.5c0.4-0.4,0.7-1,0.8-1.7c0-0.1-0.4-0.3-0.5-0.1c-0.1,0.6-0.4,1.2-0.7,1.6
				c0,0,0,0-0.1,0c-0.1-0.6-0.1-1.2-0.1-1.7c0-0.1-0.5-0.1-0.5,0c0,0.6,0,1.2,0.1,1.8c-0.4-0.4-0.6-1-0.7-1.6c0-0.1-0.5-0.2-0.5-0.1
				c0.1,0.7,0.5,1.3,0.9,1.8c-0.4-0.1-0.8-0.2-1.2-0.5c-0.1-0.1-0.6,0-0.4,0.1c0.6,0.3,1.2,0.5,1.8,0.6c0,0,0,0,0,0
				c-0.4,0.3-1,0.5-1.6,0.6c-0.3,0,0.2,0.2,0.3,0.2c0.4,0,0.7-0.1,1.1-0.3c-3.2,5-6.5,9.9-9.9,14.8c0,0-0.1,0-0.1,0
				c3.3-7.2,6.3-14.6,9.4-22c0.4,0.8,0.9,1.5,1.5,2c0.1,0.1,0.5,0,0.5-0.1c-0.6-0.6-1.1-1.3-1.5-2.1c0,0,0,0,0,0
				c1,0.3,2.1,0.4,3.3,0.3c0.3,0-0.2-0.2-0.3-0.2c-1,0.2-2,0.1-2.8-0.2c0,0,0.1-0.1,0.1-0.1c0.1-0.1,0.1-0.2,0.1-0.4
				c0.9-0.3,1.7-0.8,2.4-1.5c0.1-0.1-0.4-0.2-0.5-0.1c-0.6,0.6-1.3,1.1-2,1.3c0,0,0-0.1-0.1-0.1c0.5-0.8,0.8-1.8,0.8-2.9
				c0-0.2-0.5-0.2-0.5-0.1c0,1.1-0.3,2-0.7,2.8c-0.1-0.1-0.3-0.1-0.4,0c-0.3-0.9-0.5-1.8-0.6-2.6c0-0.1-0.5-0.1-0.5,0
				c0.1,0.9,0.3,1.9,0.7,2.9c0,0-0.1,0.1-0.1,0.1c0,0,0,0.1,0,0.1c-0.8-0.6-1.4-1.4-1.8-2.4c-0.1-0.1-0.5-0.2-0.5-0.1
				c0.5,1.2,1.2,2.1,2.1,2.7c-0.8,0-1.7-0.1-2.5-0.4c-0.1,0-0.6,0-0.4,0.1c0.9,0.4,1.9,0.5,2.9,0.5c0,0.1,0.1,0.1,0.1,0.2
				c-0.6,0.6-1.4,1-2.3,1.3c-0.2,0.1,0.2,0.3,0.4,0.2c0.7-0.2,1.4-0.6,2-1c-3,7.1-5.9,14.2-9.1,21.2c1-4.2,1.9-8.4,2.9-12.7
				c0.3,0.4,0.6,0.7,1,0.9c0.1,0.1,0.6,0,0.4-0.1c-0.4-0.3-0.8-0.7-1.1-1.1c0.7,0.1,1.3,0,2-0.2c0.2-0.1-0.3-0.2-0.4-0.2
				c-0.6,0.2-1.1,0.3-1.6,0.2c0,0,0,0,0,0c0-0.1,0-0.1,0-0.2c0.5-0.3,1-0.7,1.4-1.2c0.1-0.1-0.4-0.2-0.5-0.1
				c-0.2,0.4-0.5,0.7-0.9,0.9c0.2-0.5,0.2-1.1,0.1-1.8c0-0.1-0.5-0.2-0.5-0.1c0.1,0.7,0,1.3-0.2,1.8c0,0-0.1,0-0.1,0
				c-0.3-0.5-0.5-1-0.6-1.5c0-0.2-0.5-0.1-0.5,0c0.2,0.6,0.4,1.2,0.8,1.8c0,0,0,0,0,0c0,0,0,0,0,0c-0.5-0.2-0.9-0.6-1.3-1.2
				c-0.1-0.1-0.5-0.2-0.5-0.1c0.4,0.7,1,1.1,1.6,1.4c-0.5,0.1-1,0.1-1.5,0c-0.2,0-0.5,0.1-0.1,0.2c0.6,0.1,1.2,0.1,1.8,0
				c-0.3,0.4-0.7,0.8-1.3,1c-0.1,0,0.3,0.3,0.4,0.2c0.3-0.2,0.6-0.4,0.8-0.6c-0.9,4.2-1.8,8.4-2.9,12.5c0.6-7.9,0.8-15.8,1.1-23.7
				c0.6,0.6,1.4,1.1,2.1,1.4c0.1,0.1,0.6,0,0.3-0.1c-0.8-0.3-1.5-0.9-2.2-1.5c0,0,0,0,0.1-0.1c1.1,0,2.1-0.3,3.2-0.9
				c0.2-0.1-0.3-0.3-0.4-0.2c-0.9,0.5-1.8,0.8-2.7,0.8c0,0,0-0.1,0-0.1c0-0.1,0-0.2,0-0.3c0.7-0.5,1.3-1.3,1.7-2.2
				c0.1-0.1-0.4-0.2-0.5-0.1c-0.3,0.8-0.8,1.5-1.4,2c0,0,0,0-0.1,0c0.2-0.9,0.1-2-0.3-3c-0.1-0.1-0.5-0.2-0.5-0.1
				c0.4,1,0.4,2,0.3,2.9c-0.2,0-0.3,0.1-0.4,0.1c-0.6-0.7-1.1-1.4-1.4-2.2c-0.1-0.1-0.5-0.1-0.5,0.1c0.4,0.8,1,1.7,1.7,2.5
				c0,0.1,0,0.1-0.1,0.2c0,0,0,0.1,0,0.1c-0.9-0.2-1.8-0.7-2.5-1.6c-0.1-0.1-0.5-0.1-0.4,0c0.8,1,1.8,1.5,2.9,1.8
				c-0.8,0.4-1.7,0.6-2.6,0.5c-0.3,0-0.3,0.2,0,0.2c1,0,1.9-0.2,2.8-0.5c0,0,0.1,0.1,0.1,0.1c-0.4,0.7-0.9,1.4-1.7,2
				c-0.1,0.1,0.3,0.3,0.4,0.2c0.6-0.5,1.1-1,1.5-1.6c-0.3,7.4-0.5,14.7-1,22.1c-0.7-5.8-0.6-11.6-2.3-17.2c0,0,0,0,0,0
				c0.8,0.3,1.7,0.6,2.5,0.6c0.2,0,0.5-0.2,0.1-0.2c-0.8-0.1-1.7-0.3-2.5-0.7c0,0,0-0.1,0-0.1c1-0.3,1.9-1,2.7-1.9
				c0.1-0.1-0.4-0.3-0.4-0.2c-0.7,0.8-1.4,1.3-2.2,1.7c0,0,0-0.1,0-0.1c0-0.1-0.1-0.2-0.1-0.2c0.5-0.8,0.8-1.6,0.8-2.6
				c0-0.1-0.5-0.2-0.5,0c0,0.9-0.3,1.7-0.7,2.4c0,0,0,0,0,0c-0.1-0.9-0.5-1.8-1.2-2.7c-0.1-0.1-0.5-0.2-0.4,0
				c0.7,0.8,1.1,1.8,1.2,2.7c-0.2,0.1-0.3,0.2-0.4,0.3c-0.8-0.5-1.4-1-2-1.5c-0.1-0.1-0.5,0-0.5,0.1c0.7,0.7,1.5,1.3,2.4,1.8
				c0,0.1,0,0.2,0,0.2c0,0,0,0.1,0,0.1c-1,0.1-2-0.1-3-0.6c-0.1-0.1-0.3-0.1-0.4,0c-0.3-1.2-0.6-2.3-0.9-3.5c0,0,0,0,0,0
				c0.8,0.4,1.6,0.6,2.4,0.8c0.1,0,0.5-0.1,0.2-0.2c-0.8-0.1-1.7-0.4-2.5-0.8c0,0,0,0,0-0.1c1-0.3,2-0.8,2.8-1.7
				c0.1-0.1-0.3-0.3-0.4-0.2c-0.7,0.7-1.5,1.2-2.3,1.6c0,0,0-0.1,0-0.1c0-0.1-0.1-0.2-0.1-0.3c0.5-0.7,0.9-1.6,1-2.6
				c0-0.1-0.5-0.2-0.5,0c-0.1,0.9-0.4,1.7-0.8,2.3c0,0,0,0,0,0c-0.1-0.9-0.4-1.9-1.1-2.8c-0.1-0.1-0.5-0.2-0.4,0
				c0.7,0.9,1,1.8,1.1,2.8c-0.2,0.1-0.3,0.2-0.4,0.3c-0.7-0.5-1.4-1.1-1.9-1.7c-0.1-0.1-0.5,0-0.5,0.1c0.6,0.7,1.4,1.4,2.3,1.9
				c0,0.1,0,0.2,0,0.2c0,0,0,0.1,0,0.1c-1,0.1-1.9-0.2-2.9-0.8c-0.1-0.1-0.6-0.1-0.4,0.1c1,0.7,2.1,1,3.2,1c-0.7,0.6-1.5,1-2.4,1.3
				c-0.2,0.1,0.2,0.2,0.3,0.2c0.9-0.3,1.7-0.7,2.4-1.2c0,0,0.1,0,0.1,0c-0.2,0.8-0.5,1.6-1,2.3c-0.1,0.1,0.4,0.3,0.5,0.1
				c0.5-0.6,0.8-1.3,1-2c2,7.7,4.8,15.2,6.7,22.9c-0.2,0.1-0.3,0.1-0.5,0.2c-1.9-4.2-4-8.4-6-12.6c0.5,0.1,1,0.2,1.5,0.1
				c0.3,0,0.3-0.2,0-0.2c-0.5,0-1,0-1.4-0.2c0.6-0.3,1.1-0.8,1.5-1.4c0.1-0.1-0.4-0.3-0.4-0.2c-0.3,0.5-0.7,0.9-1.2,1.2c0,0,0,0,0,0
				c0.3-0.5,0.4-1.1,0.3-1.8c0-0.2-0.5-0.1-0.5,0c0,0.5,0,0.9-0.2,1.3c-0.2-0.5-0.5-0.9-1-1.3c-0.1-0.1-0.6-0.1-0.4,0
				c0.5,0.5,0.8,1,1,1.6c-0.1,0-0.1,0.1-0.1,0.2c-0.5-0.2-0.9-0.5-1.3-0.7c-0.1-0.1-0.6,0-0.4,0.1c0.5,0.4,1.1,0.7,1.7,0.9
				c0,0,0,0.1,0,0.1c-0.6,0.2-1.2,0.2-1.8-0.1c-0.2-0.1-0.5,0-0.2,0.2c0.6,0.2,1.3,0.3,1.8,0.2c-0.3,0.4-0.7,0.7-1.2,0.9
				c-0.2,0.1,0.3,0.2,0.4,0.1c0.4-0.2,0.8-0.5,1.2-0.9c0,0.4-0.1,0.9-0.3,1.3c-0.1,0.1,0.4,0.3,0.5,0.1c0.2-0.4,0.3-0.7,0.3-1.1
				c1.9,4.1,3.9,8.1,5.8,12.2c-0.1,0.1-0.2,0.1-0.2,0.2c-4.6-6.7-9.4-13.2-14.2-19.8c0,0,0-0.1,0-0.1c0.9,0.1,1.9,0,2.7-0.2
				c0.3-0.1-0.1-0.2-0.2-0.2c-0.8,0.2-1.6,0.2-2.4,0.2c0,0,0,0,0-0.1c0.8-0.6,1.5-1.5,2-2.6c0-0.1-0.4-0.3-0.5-0.1
				c-0.4,0.9-0.9,1.7-1.6,2.3c0,0,0,0,0-0.1c0-0.1-0.1-0.1-0.2-0.2c0.2-0.9,0.2-1.8-0.1-2.7c0-0.1-0.5-0.1-0.5,0
				c0.3,0.9,0.3,1.7,0.1,2.6c0,0,0,0-0.1,0c-0.4-0.8-1.1-1.6-2.1-2.1c-0.1-0.1-0.6-0.1-0.3,0.1c0.9,0.6,1.6,1.3,2,2.2
				c-0.2,0.1-0.3,0.3-0.3,0.5c-0.9-0.2-1.7-0.5-2.5-0.8c-0.1-0.1-0.6,0-0.3,0.1c0.8,0.4,1.8,0.7,2.8,0.9c0,0.1,0.1,0.2,0.1,0.3
				c0,0,0,0,0,0c-0.9,0.4-2,0.6-3.1,0.4c-0.3-0.1-0.1,0.2,0.1,0.2c1.1,0.2,2.1,0.1,3-0.2c-0.4,0.7-1,1.4-1.6,1.9
				c-0.1,0.1,0.3,0.2,0.4,0.1c0.7-0.6,1.4-1.3,1.8-2.1c0,0,0,0,0.1,0c0.1,0.8,0.1,1.6-0.1,2.5c0,0.1,0.4,0.3,0.5,0.1
				c0.2-0.8,0.2-1.6,0.1-2.4c4.7,6.4,9.4,12.8,13.8,19.4c-1.2-1.1-2.3-2.2-3.5-3.2c-2.2-2-4.3-4.1-6.4-6.2c0.5-0.1,0.9-0.2,1.3-0.4
				c0.2-0.1-0.2-0.2-0.3-0.1c-0.4,0.2-0.8,0.3-1.2,0.4c0.4-0.5,0.6-1.1,0.8-1.8c0-0.1-0.4-0.2-0.5-0.1c-0.1,0.6-0.3,1.1-0.6,1.6
				c0,0,0,0,0,0c0-0.5-0.1-1.1-0.4-1.6c-0.1-0.1-0.5-0.1-0.5,0c0.2,0.4,0.3,0.7,0.3,1.1c-1.1-1-2.1-2-3.2-3c0.8,0.3,1.8,0.3,2.7,0.2
				c0.3,0-0.2-0.3-0.3-0.2c-0.8,0.1-1.6,0-2.4-0.2c0-0.1,0-0.2,0-0.3c0.9-0.3,1.8-0.9,2.5-1.6c0.1-0.1-0.4-0.2-0.5-0.1
				c-0.5,0.5-1.2,1-1.8,1.3c0.5-0.9,0.7-1.9,0.6-3c0-0.2-0.5-0.2-0.5-0.1c0.1,1.1-0.2,2.2-0.6,3c0,0-0.1,0-0.1,0
				c-0.1-1-0.3-1.9-0.6-2.8c-0.1-0.2-0.5-0.1-0.5,0c0.3,0.8,0.5,1.8,0.6,2.7c-0.2,0-0.3,0.1-0.4,0.2c0,0,0,0,0,0
				c-0.7-0.5-1.3-1.2-1.7-2.1c-0.1-0.1-0.5-0.2-0.5-0.1c0.5,1.1,1.2,1.8,2.1,2.4c0,0.1,0,0.2,0,0.3c-0.8,0.1-1.6,0-2.4-0.3
				c-0.1,0-0.6,0-0.3,0.1c0.9,0.4,1.9,0.5,2.8,0.4c0,0.1,0.1,0.2,0.2,0.3c0,0,0,0,0,0c-0.7,0.7-1.6,1.2-2.6,1.5
				c-0.2,0,0.3,0.2,0.4,0.2c1-0.3,1.9-0.8,2.6-1.4c0,0.8-0.2,1.6-0.5,2.4c-0.1,0.1,0.4,0.2,0.5,0c0.3-0.8,0.4-1.7,0.5-2.6
				c0.9,0.8,1.7,1.6,2.6,2.4c-0.2-0.1-0.4-0.2-0.6-0.3c-0.3-0.1-0.3,0.1-0.1,0.2c0.6,0.2,1.1,0.6,1.4,1c-0.1,0.1-0.1,0.2-0.1,0.3
				c-0.5,0-1.1,0-1.6-0.2c-0.1,0-0.5,0.1-0.2,0.2c0.6,0.1,1.2,0.2,1.8,0.2c0,0,0,0.1,0.1,0.1c-0.5,0.4-1.1,0.6-1.9,0.7
				c-0.3,0,0,0.2,0.2,0.2c0.6,0,1.1-0.2,1.6-0.4c-0.2,0.4-0.4,0.8-0.7,1.1c-0.1,0.1,0.4,0.2,0.5,0.1c0.3-0.4,0.6-0.9,0.8-1.3
				c0.1,0.4,0.2,0.8,0.2,1.3c0,0.2,0.5,0.3,0.5,0.1c0-0.5-0.1-0.9-0.2-1.3c2.1,1.9,4.2,3.8,6.3,5.7c1.2,1.1,2.3,2.2,3.5,3.3
				c0.1,0.1,0.2,0.2,0.4,0.4c-0.1,0.1-0.2,0.2-0.2,0.3c-6.8-4.5-13.9-8.7-20.8-13c0,0,0-0.1,0-0.1c0.9-0.3,1.8-0.7,2.5-1.2
				c0.1-0.1-0.3-0.2-0.4-0.1c-0.6,0.4-1.3,0.8-2.1,1.1c0.5-0.9,0.8-2,0.8-3.1c0-0.2-0.5-0.2-0.5-0.1c0,1-0.2,2-0.6,2.8c0,0,0,0,0,0
				c-0.1,0-0.1-0.1-0.2-0.1c-0.1-0.9-0.5-1.7-1.1-2.4c-0.1-0.1-0.5-0.1-0.5,0c0.6,0.7,0.9,1.6,1.1,2.4c0,0-0.1,0-0.1,0
				c-0.8-0.6-1.7-1.1-2.8-1.2c-0.3,0-0.1,0.2,0.1,0.2c1,0.1,1.9,0.6,2.6,1.2c0,0,0,0,0,0c-0.1,0.2-0.1,0.4-0.1,0.6
				c-0.9,0.2-1.8,0.2-2.6,0.2c-0.2,0-0.5,0.2-0.1,0.2c0.9,0,1.9,0,2.9-0.2c0.1,0.1,0.1,0.1,0.2,0.2c-0.7,0.7-1.6,1.3-2.8,1.5
				c-0.3,0.1,0.2,0.2,0.3,0.2c1-0.2,1.9-0.7,2.6-1.3c-0.1,0.8-0.4,1.5-0.8,2.2c-0.1,0.1,0.4,0.2,0.5,0.1c0.5-0.8,0.8-1.8,0.8-2.7
				c0,0,0.1,0,0.1,0c0.4,0.7,0.7,1.4,0.8,2.3c0,0.1,0.5,0.2,0.5,0.1c-0.1-0.9-0.5-1.8-0.9-2.5c6.8,4.2,13.7,8.4,20.4,12.8
				c-4.3-1.7-8.6-3.3-12.9-4.9c0,0,0,0,0,0c0,0,0,0,0,0c0.6-0.3,1.1-0.6,1.5-1.1c0.1-0.1-0.4-0.1-0.5,0c-0.3,0.3-0.6,0.5-0.9,0.7
				c0.1-0.6,0.2-1.2,0-1.8c0-0.1-0.5-0.2-0.5-0.1c0.1,0.6,0.1,1.2,0,1.8c-0.2-0.5-0.5-0.9-0.9-1.3c-0.1-0.1-0.6,0-0.4,0.1
				c0.4,0.4,0.7,0.8,0.9,1.3c-0.6-0.3-1.2-0.5-1.9-0.4c-0.3,0,0.2,0.2,0.3,0.2c0.6,0,1.1,0.1,1.6,0.4c0,0.1,0,0.2,0,0.3
				c-0.5,0.2-1.1,0.4-1.7,0.5c-0.3,0-0.1,0.2,0.1,0.2c0.5-0.1,1.1-0.2,1.7-0.5c0,0,0,0,0,0c-0.3,0.5-0.8,1-1.5,1.3
				c-0.2,0.1,0.3,0.2,0.4,0.2c0.5-0.2,0.9-0.5,1.2-0.9c0,0.4-0.1,0.8-0.2,1.2c0,0.1,0.4,0.2,0.5,0c0.2-0.6,0.3-1.1,0.2-1.7
				c0.3,0.3,0.5,0.7,0.6,1.1c0,0.1,0.5,0.2,0.5,0.1c-0.2-0.5-0.5-1-0.8-1.4c4.3,1.7,8.7,3.3,13,5c0,0.1-0.1,0.3-0.1,0.4
				c-8-1.7-16.1-3.1-24.1-4.6c0,0,0-0.1,0-0.1c0.7-0.6,1.4-1.3,1.9-2c0.1-0.1-0.4-0.2-0.5,0c-0.4,0.6-0.9,1.2-1.5,1.7
				c0.1-1,0-2-0.4-3.1c-0.1-0.1-0.5-0.2-0.5-0.1c0.4,1,0.5,2,0.4,2.9c0,0,0,0,0,0c-0.1,0-0.2,0-0.3,0c-0.4-0.7-1.1-1.4-1.9-1.8
				c-0.1-0.1-0.6,0-0.3,0.1c0.8,0.5,1.4,1.1,1.8,1.9c0,0-0.1,0.1-0.1,0.1c-1-0.3-2-0.4-3.2-0.2c-0.2,0,0.2,0.2,0.4,0.2
				c1-0.2,1.9-0.1,2.7,0.1c0,0,0,0,0,0.1c0,0.2,0,0.4,0.1,0.6c-0.8,0.5-1.7,0.9-2.5,1.2c-0.3,0.1,0.1,0.2,0.2,0.2
				c0.8-0.3,1.7-0.7,2.5-1.2c0.1,0,0.1,0.1,0.2,0.1c-0.4,0.9-1.1,1.8-2,2.4c-0.1,0.1,0.3,0.2,0.4,0.2c0.9-0.6,1.5-1.3,1.9-2.1
				c0.1,0.7,0.2,1.5,0,2.2c0,0.1,0.5,0.2,0.5,0c0.1-1,0.1-2-0.2-2.9c0,0,0.1-0.1,0.1-0.1c0.6,0.5,1.1,1.1,1.5,1.8
				c0.1,0.1,0.5,0.2,0.4,0c-0.5-0.9-1.1-1.6-1.9-2.1c0,0,0,0,0,0c7.7,1.4,15.5,2.8,23.2,4.4c-4.4-0.1-8.8-0.1-13.2-0.1
				c0.4-0.5,0.7-0.9,1-1.5c0.1-0.1-0.4-0.2-0.5,0c-0.1,0.4-0.4,0.7-0.6,1c-0.1-0.5-0.3-1.1-0.6-1.6c-0.1-0.1-0.5-0.2-0.5-0.1
				c0.4,0.6,0.5,1.2,0.6,1.8c0,0,0,0,0,0c-0.4-0.4-0.8-0.7-1.4-0.9c-0.1-0.1-0.5,0-0.3,0.2c0.6,0.2,1,0.5,1.3,1c0,0,0,0,0,0
				c-0.7-0.1-1.3-0.1-2,0.2c-0.2,0.1,0.3,0.3,0.4,0.2c0.6-0.2,1.1-0.3,1.6-0.2c0,0.1,0,0.2,0.1,0.3c-0.4,0.4-0.9,0.8-1.4,1.1
				c-0.2,0.1,0.2,0.2,0.3,0.1c0.4-0.2,0.9-0.6,1.3-0.9c-0.1,0.6-0.5,1.1-1,1.6c-0.1,0.1,0.3,0.3,0.4,0.2c0.4-0.4,0.7-0.8,0.9-1.3
				c0.1,0.3,0.2,0.7,0.2,1.1c0,0.1,0.5,0.2,0.5,0c0-0.6-0.2-1.3-0.5-1.8c0.4,0.2,0.7,0.5,1.1,0.9c0.1,0.1,0.5,0.2,0.4,0
				c-0.4-0.5-0.9-0.8-1.4-1.1c4.7,0,9.4,0,14.1,0.2c0,0,0,0.1,0,0.1c0,0.1,0,0.1,0,0.2c-8.1,1.2-16.2,2.7-24.3,4.1c0,0,0-0.1,0-0.1
				c0.5-0.8,0.9-1.7,1-2.6c0-0.1-0.5-0.1-0.5,0c-0.2,0.7-0.4,1.5-0.8,2.1c-0.2-0.9-0.7-1.8-1.5-2.6c-0.1-0.1-0.5-0.1-0.4,0
				c0.7,0.8,1.2,1.7,1.4,2.7c0,0,0,0,0,0c-0.1,0-0.2,0.1-0.3,0.1c-0.7-0.5-1.5-0.9-2.4-1.1c-0.2,0-0.5,0.1-0.1,0.2
				c0.9,0.2,1.7,0.6,2.3,1.1c0,0.1-0.1,0.1-0.1,0.2c-1,0-2,0.3-3,0.9c-0.1,0.1,0.3,0.3,0.4,0.2c0.8-0.5,1.7-0.8,2.6-0.9c0,0,0,0,0,0
				c0,0.2,0.1,0.3,0.3,0.5c-0.6,0.8-1.3,1.5-2,2c-0.1,0.1,0.3,0.2,0.4,0.1c0.7-0.5,1.3-1.2,1.9-2c0,0,0.1,0,0.1,0c0,1-0.4,2-1.1,2.9
				c-0.1,0.1,0.4,0.3,0.4,0.2c0.7-0.9,1-1.8,1.1-2.8c0.4,0.6,0.7,1.3,0.8,2c0,0.2,0.5,0.1,0.5,0c-0.2-1-0.6-1.9-1.2-2.7
				c0-0.1,0.1-0.1,0.1-0.2c0.7,0.2,1.4,0.6,2.1,1.1c0.1,0.1,0.6,0.1,0.4,0c-0.8-0.6-1.6-1.1-2.4-1.3c0,0,0,0,0-0.1
				c8.1-1.4,16.2-2.9,24.3-4.1c0,0.3,0,0.7,0.1,1c-1.9,0.8-3.8,1.6-5.8,2.4c-2.2,0.8-4.4,1.6-6.5,2.3c0.1-0.4,0.1-0.7,0.1-1.1
				c0-0.1-0.5-0.1-0.5,0c0,0.4-0.1,0.8-0.2,1.3c0,0,0,0,0,0c-0.3-0.4-0.7-0.9-1.1-1.2c-0.1-0.1-0.6-0.1-0.4,0.1
				c0.5,0.4,0.9,0.8,1.2,1.3c-0.1,0-0.2,0.1-0.3,0.1c-0.4-0.1-0.9-0.2-1.4-0.2c-0.3,0-0.1,0.2,0.1,0.2c0.3,0,0.7,0,1,0.1
				c-1,0.4-2,0.7-3.1,1.1c0.6-0.6,1.1-1.3,1.4-2.2c0-0.1-0.4-0.3-0.5-0.1c-0.3,0.8-0.7,1.5-1.3,2.1c0,0,0,0,0,0
				c0.1-0.9,0-1.9-0.2-2.8c0-0.1-0.5-0.1-0.5,0c0.2,0.8,0.3,1.6,0.3,2.3c-0.5-0.8-1.3-1.4-2.3-1.8c-0.1-0.1-0.6,0-0.3,0.1
				c1.1,0.5,1.9,1.2,2.4,2.1c0,0,0,0,0,0c-0.1,0-0.2,0.1-0.2,0.1c-0.9-0.4-1.8-0.6-2.6-0.8c-0.1,0-0.5,0.1-0.2,0.2
				c0.9,0.1,1.8,0.4,2.7,0.8c-0.1,0.2-0.1,0.4,0,0.6c-0.8,0.5-1.8,0.7-2.9,0.6c-0.3,0,0,0.2,0.2,0.2c1.1,0.1,2.1-0.1,2.9-0.6
				c0,0,0,0,0.1,0c-0.3,0.8-0.8,1.5-1.5,2.1c-0.1,0.1,0.3,0.2,0.4,0.1c0.7-0.6,1.2-1.3,1.6-2.1c0.1,0,0.2,0,0.2,0c0,0,0,0,0,0
				c0.2,0.9,0.2,1.9,0,2.9c0,0.1,0.4,0.3,0.5,0.1c0.3-1.2,0.2-2.3-0.1-3.3c0.7,0.4,1.3,0.9,1.8,1.5c0.1,0.1,0.5,0,0.5-0.1
				c-0.6-0.7-1.4-1.3-2.2-1.7c0,0,0-0.1,0-0.1c1.2-0.4,2.3-0.8,3.5-1.2c0.1,0,0.1,0.1,0.2,0.1c0,0,0,0,0,0c-0.6,0.1-1.3,0.4-1.8,1
				c-0.1,0.1,0.3,0.3,0.4,0.2c0.4-0.4,0.9-0.7,1.4-0.9c0,0.1,0.1,0.1,0.1,0.1c-0.2,0.6-0.6,1.1-0.9,1.5c-0.1,0.1,0.4,0.2,0.5,0
				c0.3-0.4,0.6-0.8,0.8-1.3c0.1,0.5,0,1.1-0.3,1.7c0,0.1,0.4,0.3,0.5,0.1c0.3-0.6,0.3-1.2,0.3-1.7c0.2,0.3,0.4,0.6,0.6,0.9
				c0.1,0.1,0.5,0.1,0.5,0c-0.3-0.6-0.7-1.1-1.2-1.5c0,0,0,0,0,0c0,0,0,0,0,0c0.5,0,1,0.1,1.5,0.4c0.2,0.1,0.5,0,0.2-0.1
				c-0.5-0.2-1-0.4-1.5-0.4c2.3-1,4.6-2,6.9-2.9c1.9-0.7,3.7-1.4,5.6-2.1c0.1,0.1,0.1,0.2,0.2,0.3c-6.7,4.2-13.3,8.6-20,12.9
				c0.1-0.9,0.1-1.8-0.1-2.7c0-0.1-0.5-0.1-0.5,0c0.2,0.8,0.2,1.6,0.1,2.4c-0.6-0.8-1.4-1.4-2.4-1.9c-0.1-0.1-0.6,0-0.3,0.1
				c1,0.5,1.8,1.1,2.4,1.9c0,0,0,0-0.1,0c-0.1,0.1-0.2,0.2-0.3,0.3c-0.9-0.2-1.8-0.3-2.8,0c-0.3,0.1,0.1,0.2,0.2,0.2
				c0.9-0.2,1.7-0.2,2.4,0.1c0,0.1,0,0.1,0,0.2c-0.9,0.4-1.8,1-2.4,2c-0.1,0.1,0.4,0.3,0.5,0.1c0.6-0.8,1.3-1.4,2-1.8
				c0.1,0.2,0.2,0.2,0.4,0.3c-0.2,0.9-0.6,1.8-1,2.6c-0.1,0.1,0.4,0.2,0.5,0c0.4-0.8,0.8-1.7,1-2.6c0,0,0.1,0,0.1,0c0,0,0,0,0,0
				c0.3,0.9,0.4,1.9,0.1,3c0,0.1,0.4,0.3,0.5,0.1c0.3-1.2,0.2-2.2-0.2-3.2c0.6,0.4,1.2,1,1.6,1.6c0.1,0.1,0.5,0.1,0.5,0
				c-0.6-0.8-1.3-1.5-2.2-2c0-0.1,0-0.2,0-0.3c0.8-0.1,1.6-0.1,2.5,0.2c0.3,0.1,0.3-0.1,0.1-0.2c-0.9-0.3-1.8-0.3-2.6-0.3
				c6.6-4.3,13.2-8.8,19.9-12.9c0.1,0.1,0.1,0.1,0.2,0.2c-4.2,4-8.2,8.1-12.3,12.1c-0.1-0.5-0.2-1-0.3-1.4c-0.1-0.1-0.5-0.1-0.5,0.1
				c0.2,0.4,0.3,0.9,0.3,1.3c-0.5-0.3-1-0.6-1.6-0.7c-0.3-0.1-0.3,0.1,0,0.2c0.6,0.1,1.2,0.4,1.6,0.8c0,0,0,0,0,0
				c-0.1,0-0.1,0.1-0.1,0.2c-0.6,0-1.2,0.1-1.8,0.3c-0.2,0.1,0.3,0.2,0.4,0.1c0.5-0.2,0.9-0.3,1.4-0.3c-0.5,0.4-1,0.9-1.2,1.6
				c0,0.1,0.4,0.3,0.5,0.1c0.2-0.6,0.6-1,1-1.4c0,0,0.1,0,0.1,0.1c0,0.6-0.1,1.2-0.2,1.7c0,0.1,0.4,0.1,0.5,0
				c0.1-0.5,0.2-1.1,0.2-1.7c0.3,0.5,0.4,1,0.4,1.7c0,0.2,0.5,0.2,0.5,0.1c0-0.7-0.2-1.3-0.5-1.9c0.4,0.2,0.7,0.4,1,0.7
				c0.1,0.1,0.6,0,0.4-0.1c-0.5-0.4-1.1-0.8-1.7-0.9c0,0,0,0,0,0c0.5-0.2,1-0.3,1.6-0.2c0.3,0,0-0.2-0.2-0.2c-0.4,0-0.8,0-1.2,0.1
				c4-4,8-8.1,12.1-12c0.1,0.1,0.2,0.1,0.2,0.2c0,0,0,0.1-0.1,0.1c-4.6,6.4-9,12.9-13.5,19.4c-0.2-0.8-0.6-1.6-1-2.3
				c-0.1-0.1-0.5,0-0.5,0.1c0.5,0.7,0.8,1.5,1,2.4c0,0,0,0,0,0c-0.9-0.5-2-0.8-3.1-0.9c-0.3,0,0.1,0.2,0.2,0.2c1,0,2,0.3,2.7,0.8
				c0,0-0.1,0.1-0.1,0.1c-0.1,0.1-0.1,0.2-0.1,0.4c-0.9,0.1-1.8,0.4-2.6,1c-0.1,0.1,0.3,0.2,0.4,0.1c0.7-0.5,1.5-0.8,2.2-0.9
				c0,0,0,0.1,0,0.1c-0.7,0.7-1.2,1.6-1.4,2.7c0,0.1,0.4,0.3,0.5,0.1c0.2-1,0.6-1.9,1.2-2.5c0.1,0.1,0.3,0.1,0.4,0.1
				c0.1,0.9,0.2,1.9,0.1,2.7c0,0.1,0.5,0.1,0.5,0c0.1-0.9,0.1-1.9-0.1-2.9c0,0,0.1-0.1,0.1-0.1c0,0,0,0,0-0.1
				c0.6,0.7,1.1,1.6,1.3,2.7c0,0,0,0,0,0c-0.2,0.4-0.5,0.8-0.7,1.2c-2.5,4.2-5.2,8.2-7.8,12.3c-0.2-0.2-0.5-0.5-0.8-0.6
				c-0.9-0.5-1.9-0.7-3.1-0.7h-0.5c-1.2,0-2.6,0.8-4.3,2.3c-1.7,1.6-3.1,3.3-4.2,5.3c-1.2,2-1.8,3.5-1.8,4.5c0,1,0.3,1.8,0.8,2.4
				C117.6,85.7,118.2,86,118.9,86z M155,35.3c2.7,5.4,5.5,10.8,8.4,16.2c-0.8,0.1-1.6,0.3-2.3,0.6c0.3-0.8,0.6-1.6,1.1-2.3
				c0.1-0.1-0.4-0.2-0.5,0c-0.5,0.7-0.9,1.4-1.1,2.2c-1.9-3.3-2.9-7.2-4-10.8c-0.6-1.9-1.1-3.9-1.9-5.9
				C154.9,35.4,154.9,35.3,155,35.3z M154.9,50.7c-0.6-0.2-1.2-0.3-1.8-0.3c0,0,0,0-0.1-0.1c0.5-0.5,1-0.9,1.6-1.3
				C154.7,49.6,154.8,50.1,154.9,50.7z M154.6,48.7c-0.7,0.4-1.3,0.8-1.9,1.4c-0.4-4.8-0.1-9.6,0.1-14.4c0.1,0,0.1,0,0.2,0
				c0,0,0.1,0,0.1,0C153.5,40.1,154.1,44.4,154.6,48.7z M146.7,9.2C146.7,9.2,146.7,9.2,146.7,9.2c1.1,0.6,2.2,0.9,3.3,0.8
				c-0.6,0.6-1.4,1.1-2.3,1.4c-0.2,0.1,0.2,0.2,0.3,0.2c0.9-0.3,1.7-0.8,2.3-1.4c0,0,0.1,0,0.1,0c-0.1,0.8-0.4,1.6-0.9,2.4
				c-0.1,0.1,0.4,0.3,0.5,0.1c0.4-0.7,0.7-1.3,0.8-2c1.6,5.9,1.5,12.2,2.4,18.2c-0.2,0-0.4,0-0.7,0.1
				C150.9,22.3,148.5,15.8,146.7,9.2z M152.3,37.2c-0.2,4.2-0.4,8.4-0.1,12.7c-0.4-0.6-0.9-1.1-1.6-1.6c-0.1-0.1-0.6-0.1-0.4,0
				c0.8,0.5,1.4,1.2,1.8,1.9c-0.1,0-0.1,0.1-0.2,0.2c-0.8-0.3-1.8-0.5-2.7-0.4C150.2,45.7,151.2,41.5,152.3,37.2z M138.2,55.1
				c0.7-0.4,1.6-0.7,2.5-0.8c0.3,0-0.2-0.2-0.3-0.2c-0.8,0.1-1.5,0.3-2.2,0.6c4.1-6,8.1-12,12.3-17.8c-2.9,6.6-6.1,13.1-9.7,19.4
				c-0.8-0.5-1.6-0.8-2.5-0.9C138.2,55.2,138.2,55.2,138.2,55.1z M138.3,55.5c0.8,0.1,1.5,0.4,2.3,0.9c0,0,0,0,0,0
				c-0.3,0.5-0.6,1-0.9,1.6C139.4,57,139,56.2,138.3,55.5z"/>
		</g>
	</g>
</g>
</svg>
